<?xml version="1.0" encoding="UTF-8"?> <svg xmlns="http://www.w3.org/2000/svg" width="74" height="101" viewBox="0 0 74 101" fill="none"><g clip-path="url(#clip0_101_34)"><path d="M50.8801 101V99.8923C53.3561 99.8923 55.332 98.7516 56.8077 96.4704C58.2834 94.1891 59.0213 91.1364 59.0213 87.3124V36.4103C59.0213 33.8664 58.6278 32.176 57.5702 30.7892C56.242 29.0577 52.6018 29.1398 49.2568 29.1398L51.3639 27.3262L61.1447 27.359C64.6947 27.359 67.3756 27.1539 69.1875 26.7518C70.9994 26.481 72.2701 25.7425 73.008 24.5362H73.5081V75.9388C73.5081 80.9035 72.5899 85.2609 70.7452 89.0193C68.9005 92.7776 66.2852 95.7072 62.9074 97.8243C59.5214 99.9333 55.5205 100.992 50.8965 100.992L50.8801 101ZM65.6539 16.6994C63.3091 16.6994 61.3497 15.8952 59.7756 14.2868C58.2014 12.6784 57.4144 10.7008 57.4144 8.35385C57.4144 6.00692 58.2014 3.9472 59.7756 2.37164C61.3497 0.796081 63.3091 0.00830078 65.6539 0.00830078C67.9987 0.00830078 69.9745 0.796081 71.5814 2.37164C73.1884 3.9472 73.9918 5.94127 73.9918 8.35385C73.9918 10.7664 73.1884 12.6784 71.5814 14.2868C69.9745 15.8952 67.9987 16.6994 65.6539 16.6994Z" fill="#BC1543"></path><path d="M23.8167 100.967C16.7168 100.967 10.9696 100.015 6.58343 98.1032C2.19721 96.1912 0 93.6966 0 90.6111C0 88.2642 1.1232 86.1634 3.3696 84.3253C5.616 82.4789 8.68225 81.0593 12.5684 80.0499C6.27188 78.4415 3.12364 75.594 3.12364 71.4992C3.12364 69.2836 3.99269 67.2239 5.73898 65.3119C7.47707 63.3999 9.92843 61.8735 13.0767 60.7329C9.72346 59.2558 7.13273 57.114 5.28806 54.2911C3.44339 51.4765 2.52515 48.153 2.52515 44.329C2.52515 38.7653 4.45181 34.3012 8.30512 30.9532C12.1584 27.5969 17.3317 25.9229 23.8331 25.9229C26.9158 25.9229 29.9329 26.3906 32.8761 27.3343H51.372L50.3636 29.1478H36.6967C39.3776 30.6906 41.4354 32.7503 42.8783 35.3352C44.3213 37.9201 45.0428 40.9153 45.0428 44.3372C45.0428 49.9009 43.1489 54.3814 39.3612 57.7705C35.5735 61.1596 30.4002 62.85 23.8331 62.85C20.2176 62.85 17.0284 62.3167 14.2819 61.2417C12.1338 62.3823 11.068 63.7199 11.068 65.2626C11.068 66.6084 12.0027 67.5111 13.8801 67.9788C14.8148 68.2496 16.1593 68.4794 17.8974 68.6845C19.6355 68.8897 21.7507 69.021 24.2267 69.0866L27.7439 69.2918C35.4505 69.5626 41.3944 71.0397 45.5839 73.7149C49.7733 76.3982 51.8639 80.0499 51.8639 84.6781C51.8639 89.8397 49.388 93.8443 44.4279 96.7C39.4678 99.5475 32.6056 100.975 23.8249 100.975L23.8167 100.967ZM24.9236 99.6624C28.0062 99.6624 30.8511 99.211 33.4664 98.3002C36.0818 97.3975 38.1724 96.142 39.7465 94.5254C41.3206 92.917 42.1077 91.0706 42.1077 88.9945C42.1077 86.7132 40.9353 84.8997 38.5905 83.5621C36.1146 82.2902 32.3268 81.6173 27.2355 81.5516L23.7184 81.3547C21.7753 81.289 19.9798 81.1659 18.3401 81.0018C16.7004 80.8295 15.2411 80.6161 13.9703 80.3453C12.5602 80.8131 11.5271 81.7568 10.8549 83.16C10.1826 84.5714 9.84644 86.2455 9.84644 88.1903C9.84644 91.6779 11.15 94.4597 13.7653 96.5441C16.3807 98.6202 20.0946 99.6624 24.9236 99.6624ZM23.7184 61.6356C25.7926 61.6356 27.5061 60.06 28.8425 56.9089C30.0476 53.7578 30.6543 49.5645 30.6543 44.3372C30.6543 39.11 30.0476 34.851 28.8425 31.7656C27.5717 28.7457 25.891 27.2358 23.8167 27.2358C21.7425 27.2358 19.9962 28.7457 18.791 31.7656C17.5859 34.851 16.9792 39.0443 16.9792 44.3372C16.9792 49.6301 17.5777 53.8644 18.791 57.0156C19.9962 60.101 21.6359 61.6438 23.7184 61.6438V61.6356Z" fill="#BC1543"></path></g><defs><clipPath id="clip0_101_34"><rect width="74" height="101" fill="white"></rect></clipPath></defs></svg> 